PathFileType	4	(X/Y/Z)	C:\Users\dbl\Desktop\20210112\20210112\bx_n_0_901.trc
DataRate	CameraRate	NumFrames	NumMarkers	Units	OrigDataRate	OrigDataStartFrame	OrigNumFrames
50.00	50.00	       8	43	mm	50.00	1	       370
Frame#	Time	Top.Head			R.Acromium			L.Acromium			Sternum			R.ASIS			L.ASIS			V.Sacral			R.Thigh.Upper			R.Thigh.Front			R.Thigh.Rear			R.Knee.Lat			R.Knee.Med			R.Shank.Upper			R.Shank.Front			R.Shank.Rear			R.Ankle.Lat			R.Midfoot.Lat			R.Toe.Lat			R.Toe.Tip			R.Toe.Med			R.Ankle.Med			R.Midfoot.Sup			R.Heel			L.Thigh.Upper			L.Thigh.Front			L.Thigh.Rear			L.Knee.Lat			L.Knee.Med			L.Shank.Upper			L.Shank.Front			L.Shank.Rear			L.Ankle.Lat			L.Midfoot.Lat			L.Toe.Lat			L.Toe.Tip			L.Toe.Med			L.Ankle.Med			L.Midfoot.Sup			L.Heel			origin1 front left			origin2 front right			origin 3 back right			origin 4 back leftt			
		X1	Y1	Z1	X2	Y2	Z2	X3	Y3	Z3	X4	Y4	Z4	X5	Y5	Z5	X6	Y6	Z6	X7	Y7	Z7	X8	Y8	Z8	X9	Y9	Z9	X10	Y10	Z10	X11	Y11	Z11	X12	Y12	Z12	X13	Y13	Z13	X14	Y14	Z14	X15	Y15	Z15	X16	Y16	Z16	X17	Y17	Z17	X18	Y18	Z18	X19	Y19	Z19	X20	Y20	Z20	X21	Y21	Z21	X22	Y22	Z22	X23	Y23	Z23	X24	Y24	Z24	X25	Y25	Z25	X26	Y26	Z26	X27	Y27	Z27	X28	Y28	Z28	X29	Y29	Z29	X30	Y30	Z30	X31	Y31	Z31	X32	Y32	Z32	X33	Y33	Z33	X34	Y34	Z34	X35	Y35	Z35	X36	Y36	Z36	X37	Y37	Z37	X38	Y38	Z38	X39	Y39	Z39	X40	Y40	Z40	X41	Y41	Z41	X42	Y42	Z42	X43	Y43	Z43	

1	0.000	-658.33240	112.37701	1852.25220	-679.39600	-81.19820	1535.89514	-697.41040	283.68307	1531.56494	-579.12720	105.41292	1356.01196	-584.88153	-10.09608	1051.39734	-589.23804	236.32057	1062.32666	-789.21130	92.80769	1062.28650	-655.25592	-76.30264	870.75092	-580.24237	-9.29551	800.55609	-676.56097	-65.85899	754.47583	-702.47339	-37.71268	613.17145	-691.85217	72.10000	571.23785	-711.09741	-34.81820	567.27924	-664.38641	14.76865	518.26312	-755.21625	-47.94950	488.18793	-758.24927	-18.97991	206.83609	-648.21747	-66.40196	163.01299	-606.00024	-71.41859	158.88123	-547.99591	-24.64933	164.38618	-600.35016	28.35957	166.15994	-674.26935	54.31195	158.11404	-719.53339	70.69967	216.33299	-793.49933	39.18307	175.10901	-674.19568	281.97787	872.03369	-580.50446	216.62692	790.41156	-683.43292	268.84558	742.28748	-721.35223	252.03285	641.38489	-689.26324	141.33360	573.90710	-721.43750	245.94003	575.19208	-671.21735	201.93983	532.88757	-761.36835	258.40262	502.22748	-764.49097	227.49777	205.92747	-652.52454	291.54031	157.26468	-615.31104	297.58047	158.82164	-552.60327	243.27063	166.02673	-589.33752	207.25165	173.96655	-714.66083	150.28973	216.95576	-675.43225	165.77403	157.25008	-795.42377	179.91154	184.62459	-528.29199	303.90353	146.45262	-517.78125	-73.11418	143.31047	-875.99792	-78.69180	141.55168	-882.50012	295.98505	144.57483	
2	0.020	-658.51508	112.20592	1852.29919	-679.42554	-81.29867	1535.85315	-697.42987	283.61258	1531.60303	-579.12677	105.39266	1356.07190	-584.94849	-10.21498	1051.33423	-589.14532	236.19771	1062.32556	-789.23663	92.72505	1062.26685	-655.26141	-76.33875	870.80042	-580.31665	-9.28921	800.62445	-676.53442	-65.88007	754.48016	-702.48987	-37.70301	613.11066	-691.71088	72.06108	571.12781	-711.05176	-34.95302	567.38617	-664.39313	14.75081	518.26147	-755.20654	-47.96150	488.19458	-758.22729	-19.00528	206.87405	-648.21545	-66.50281	163.02077	-605.98334	-71.38575	158.92999	-548.00671	-24.66206	164.34108	-600.35699	28.35249	166.23518	-674.29242	54.32097	158.11554	-719.61884	70.81355	216.44765	-793.54041	39.20970	175.13527	-674.17261	281.99231	872.17279	-580.60437	216.60518	790.36621	-683.60480	268.75995	742.36261	-721.21045	252.00179	641.37848	-689.33929	141.35963	573.86401	-721.41919	245.90744	575.20648	-671.09869	201.94012	532.97021	-761.36224	258.30923	502.23541	-764.54108	227.42534	205.81348	-652.54047	291.59344	157.21803	-615.33380	297.49863	158.80313	-552.63464	243.20602	166.03261	-589.32751	207.30917	173.97357	-714.72858	150.28793	217.02626	-675.44568	165.79124	157.23898	-795.52258	179.91870	184.75858	-528.16357	303.94943	146.50551	-517.74438	-72.89099	143.17604	-875.99127	-78.74448	141.47536	-882.50806	296.03305	144.60425	
3	0.040	-658.68964	112.02036	1852.33118	-679.45020	-81.38723	1535.82214	-697.46198	283.53851	1531.65869	-579.11786	105.35580	1356.11902	-585.00787	-10.33691	1051.27173	-589.06659	236.10225	1062.33276	-789.25366	92.63674	1062.24683	-655.26996	-76.43182	870.86804	-580.35229	-9.29966	800.67224	-676.50342	-65.92482	754.49146	-702.49615	-37.69987	613.07318	-691.62653	72.03101	571.06293	-711.02216	-35.09111	567.47961	-664.39545	14.71451	518.25586	-755.20282	-47.97089	488.19250	-758.20953	-19.02675	206.90068	-648.21454	-66.58044	163.01419	-605.99194	-71.37745	158.95480	-547.99487	-24.66498	164.31061	-600.36200	28.34280	166.26375	-674.31934	54.34157	158.11462	-719.67010	70.88475	216.51653	-793.56812	39.23691	175.15584	-674.16876	281.97430	872.28650	-580.67303	216.54259	790.32935	-683.75745	268.65884	742.39111	-721.11884	251.96864	641.39130	-689.36536	141.35098	573.82874	-721.36597	245.83551	575.20203	-671.04376	201.93004	533.02368	-761.32770	258.21161	502.24786	-764.57184	227.37381	205.75040	-652.55585	291.63016	157.19206	-615.35712	297.46335	158.78691	-552.65338	243.15759	166.03607	-589.33496	207.33994	173.97310	-714.78430	150.28764	217.05640	-675.47076	165.81628	157.23515	-795.59070	179.92955	184.86475	-528.10449	304.01596	146.53407	-517.71741	-72.75257	143.10208	-875.99567	-78.77914	141.44019	-882.52332	296.09189	144.63226	
4	0.060	-658.85364	111.81773	1852.34973	-679.46930	-81.45311	1535.80835	-697.50537	283.46118	1531.72620	-579.10175	105.29334	1356.14624	-585.04901	-10.44299	1051.22351	-589.01050	236.03127	1062.35132	-789.24359	92.53878	1062.22656	-655.27075	-76.56759	870.92444	-580.31927	-9.39069	800.67401	-676.47083	-66.00975	754.51184	-702.48145	-37.70498	613.04572	-691.62976	72.01619	571.05890	-711.01654	-35.22329	567.54974	-664.38904	14.65948	518.24316	-755.20062	-47.98270	488.18161	-758.19562	-19.04322	206.91508	-648.22150	-66.62091	162.99924	-606.01074	-71.39035	158.94873	-547.97589	-24.66501	164.30180	-600.35529	28.34655	166.27185	-674.35046	54.37192	158.11349	-719.69128	70.91239	216.54236	-793.56934	39.26207	175.16109	-674.18079	281.92773	872.35577	-580.68842	216.43704	790.31091	-683.86737	268.54446	742.36743	-721.08893	251.91129	641.40906	-689.30994	141.30159	573.80933	-721.30591	245.76096	575.20288	-671.03772	201.91228	533.05463	-761.27515	258.12152	502.26871	-764.58301	227.34938	205.73492	-652.56915	291.64188	157.19469	-615.37555	297.47687	158.77341	-552.65314	243.13022	166.03970	-589.35986	207.34093	173.97484	-714.82599	150.28735	217.03497	-675.50275	165.84164	157.25246	-795.61523	179.94565	184.92267	-528.11719	304.08176	146.53168	-517.71088	-72.71334	143.08710	-875.99609	-78.78193	141.42833	-882.53412	296.13510	144.64677	
5	0.080	-659.00800	111.60510	1852.36414	-679.48474	-81.50010	1535.80896	-697.54645	283.37833	1531.77832	-579.08588	105.20920	1356.15344	-585.06683	-10.51772	1051.20337	-588.98529	235.95827	1062.37500	-789.19659	92.42474	1062.20837	-655.25732	-76.69878	870.93445	-580.22717	-9.58120	800.63074	-676.44617	-66.13395	754.53589	-702.44354	-37.73256	613.01190	-691.68347	71.99370	571.11096	-711.03131	-35.34488	567.59619	-664.38129	14.59845	518.21667	-755.19141	-48.00711	488.16507	-758.18256	-19.05278	206.92105	-648.24115	-66.62056	162.99150	-606.01086	-71.41404	158.92738	-547.97528	-24.67188	164.32083	-600.33899	28.37232	166.29387	-674.36938	54.39706	158.11191	-719.70551	70.92111	216.55408	-793.54913	39.28653	175.15695	-674.18921	281.87073	872.37543	-580.65302	216.31438	790.30975	-683.91925	268.42709	742.31012	-721.07953	251.80894	641.40259	-689.18768	141.23283	573.80505	-721.28113	245.73282	575.22687	-671.04028	201.89548	533.07635	-761.23633	258.05191	502.29773	-764.58881	227.34378	205.73581	-652.57428	291.63004	157.21320	-615.38324	297.51083	158.76457	-552.63544	243.11392	166.05338	-589.37701	207.32961	173.99095	-714.84869	150.28050	216.98645	-675.51678	165.85312	157.29933	-795.59796	179.95868	184.91376	-528.15717	304.10806	146.51564	-517.72845	-72.72241	143.09012	-875.97217	-78.75631	141.39915	-882.53229	296.13821	144.64276	
6	0.100	-659.15155	111.39997	1852.37585	-679.50012	-81.54567	1535.81531	-697.57562	283.28516	1531.79272	-579.07263	105.12325	1356.14868	-585.05865	-10.56865	1051.21008	-588.99371	235.85995	1062.39148	-789.12384	92.29578	1062.18701	-655.23761	-76.80700	870.90637	-580.12317	-9.79690	800.57471	-676.43866	-66.27248	754.55664	-702.39417	-37.81051	612.98627	-691.70587	71.93089	571.19794	-711.05048	-35.47258	567.62732	-664.39160	14.53074	518.16852	-755.17273	-48.05010	488.14459	-758.17053	-19.05323	206.92157	-648.26654	-66.59775	162.99434	-605.99432	-71.45004	158.90738	-547.99500	-24.68297	164.36784	-600.32501	28.40652	166.32593	-674.36664	54.41652	158.10393	-719.71808	70.92496	216.56380	-793.53351	39.30325	175.16321	-674.17993	281.81000	872.35852	-580.59265	216.19461	790.31226	-683.92682	268.31299	742.25476	-721.04071	251.67438	641.35962	-689.07233	141.17673	573.80945	-721.28204	245.73239	575.25513	-671.04022	201.87965	533.08911	-761.22382	257.99960	502.32745	-764.59747	227.34138	205.73560	-652.56189	291.59921	157.22789	-615.37946	297.53799	158.76575	-552.61353	243.09825	166.08014	-589.37531	207.31598	174.01167	-714.84332	150.26286	216.95001	-675.49194	165.85547	157.35414	-795.54980	179.95038	184.83669	-528.18878	304.09344	146.51161	-517.75623	-72.72612	143.08937	-875.93005	-78.73178	141.34242	-882.53241	296.11249	144.62654	
7	0.120	-659.28259	111.22968	1852.38159	-679.52087	-81.60076	1535.81641	-697.59760	283.18390	1531.77051	-579.05579	105.06118	1356.14600	-585.02258	-10.61108	1051.23083	-589.01978	235.73669	1062.38879	-789.04749	92.16167	1062.16394	-655.21533	-76.89483	870.86652	-580.04803	-9.95992	800.53503	-676.44263	-66.39217	754.57562	-702.35626	-37.94059	612.99152	-691.66119	71.84022	571.27686	-711.05194	-35.62759	567.65314	-664.42755	14.44002	518.10663	-755.14807	-48.10748	488.12418	-758.16608	-19.04570	206.92056	-648.27771	-66.58818	163.00055	-605.98639	-71.48940	158.88963	-548.02014	-24.68985	164.42148	-600.31055	28.43093	166.35818	-674.36188	54.45169	158.08315	-719.71521	70.92175	216.56671	-793.54266	39.29871	175.17886	-674.14795	281.75146	872.33112	-580.53345	216.08257	790.30573	-683.91803	268.21396	742.24316	-720.96552	251.54814	641.29663	-689.04364	141.14954	573.82178	-721.26965	245.70532	575.27094	-671.03821	201.85695	533.09558	-761.22046	257.94873	502.34018	-764.60150	227.33260	205.72908	-652.53497	291.56180	157.22958	-615.36755	297.54163	158.78006	-552.60669	243.08621	166.10353	-589.37854	207.29298	174.01335	-714.81183	150.24081	216.94926	-675.44177	165.86246	157.37865	-795.49591	179.91710	184.73335	-528.20276	304.07422	146.52829	-517.77130	-72.71284	143.08748	-875.90033	-78.73940	141.28059	-882.54089	296.08780	144.61223	
8	0.140	-659.40790	111.11180	1852.38293	-679.55115	-81.66072	1535.80090	-697.62286	283.08093	1531.72534	-579.02563	105.02640	1356.15210	-584.96655	-10.65703	1051.25671	-589.04138	235.61221	1062.36438	-788.98987	92.03189	1062.16077	-655.18079	-76.96289	870.82446	-580.01288	-10.05893	800.51965	-676.43243	-66.48441	754.60431	-702.34766	-38.08556	613.02698	-691.58771	71.76752	571.31635	-711.02069	-35.80151	567.67151	-664.47382	14.32413	518.06152	-755.12030	-48.16927	488.11169	-758.17218	-19.03628	206.92615	-648.26208	-66.60622	163.00754	-605.99524	-71.50169	158.86823	-548.03369	-24.68766	164.44800	-600.28583	28.43357	166.38080	-674.36462	54.50013	158.04874	-719.68140	70.90551	216.56032	-793.57343	39.28241	175.18311	-674.09515	281.70392	872.32507	-580.48700	215.97733	790.28705	-683.89960	268.15198	742.28351	-720.88544	251.46278	641.25238	-689.09949	141.13213	573.84973	-721.22754	245.63504	575.27124	-671.03064	201.82837	533.10284	-761.20374	257.88550	502.32892	-764.59174	227.32394	205.71826	-652.51135	291.53491	157.22458	-615.35400	297.51373	158.80196	-552.62469	243.08759	166.09555	-589.38995	207.26756	173.99944	-714.76367	150.22409	216.97359	-675.40094	165.86714	157.36398	-795.46838	179.87785	184.66576	-528.20319	304.07184	146.55557	-517.76691	-72.69622	143.08289	-875.90283	-78.77740	141.24156	-882.54358	296.08710	144.61967	
